<svg width="46" height="46" viewBox="0 0 46 46" fill="none" xmlns="http://www.w3.org/2000/svg">
<path fill-rule="evenodd" clip-rule="evenodd" d="M13.8958 12.7092V10.4672C13.8958 8.80687 15.1105 7.3964 16.7525 7.15011L19.0906 6.79939C21.6824 6.41062 24.3176 6.41062 26.9094 6.79939L29.2476 7.15011C30.8895 7.3964 32.1042 8.80687 32.1042 10.4672V12.7092L35.3894 12.9744C37.9048 13.1775 39.9567 15.0714 40.3601 17.5625C41.2517 23.0682 41.2517 28.6815 40.3601 34.1872C39.9567 36.6783 37.9048 38.5723 35.3894 38.7753L31.8016 39.0649C25.9434 39.5378 20.0566 39.5378 14.1984 39.0649L10.6106 38.7753C8.09519 38.5723 6.04332 36.6783 5.6399 34.1872C4.74829 28.6815 4.74829 23.0682 5.6399 17.5625C6.04332 15.0714 8.09519 13.1775 10.6106 12.9744L13.8958 12.7092ZM19.5171 9.64258C21.8261 9.29622 24.1739 9.29622 26.4829 9.64258L28.8211 9.9933C29.0557 10.0285 29.2292 10.23 29.2292 10.4672V12.5077C25.0798 12.271 20.9203 12.271 16.7708 12.5077V10.4672C16.7708 10.23 16.9444 10.0285 17.1789 9.9933L19.5171 9.64258ZM14.4298 15.5505C20.134 15.0901 25.866 15.0901 31.5703 15.5505L35.1581 15.8401C36.3544 15.9367 37.3302 16.8374 37.5221 18.0221C37.6416 18.7599 37.7441 19.4997 37.8297 20.241C28.4809 24.8445 17.5191 24.8445 8.17033 20.241C8.25592 19.4997 8.35845 18.7599 8.47793 18.0221C8.66979 16.8374 9.64562 15.9367 10.8419 15.8401L14.4298 15.5505ZM7.91371 23.3001C17.4959 27.6581 28.5041 27.6581 38.0863 23.3001C38.269 26.7811 38.0809 30.2767 37.5221 33.7276C37.3302 34.9124 36.3544 35.8131 35.1581 35.9096L31.5702 36.1992C25.866 36.6597 20.134 36.6597 14.4298 36.1992L10.8419 35.9096C9.64562 35.8131 8.66979 34.9124 8.47793 33.7276C7.91908 30.2767 7.73101 26.7811 7.91371 23.3001Z" fill="#23557A"/>
</svg>
