<svg width="18" height="14" viewBox="0 0 18 14" fill="none" xmlns="http://www.w3.org/2000/svg">
<path fill-rule="evenodd" clip-rule="evenodd" d="M5.5625 7C5.5625 5.10152 7.10152 3.5625 9 3.5625C10.8985 3.5625 12.4375 5.10152 12.4375 7C12.4375 8.89848 10.8985 10.4375 9 10.4375C7.10152 10.4375 5.5625 8.89848 5.5625 7ZM9 4.9375C7.86091 4.9375 6.9375 5.86091 6.9375 7C6.9375 8.13909 7.86091 9.0625 9 9.0625C10.1391 9.0625 11.0625 8.13909 11.0625 7C11.0625 5.86091 10.1391 4.9375 9 4.9375Z" fill="#B1B1B1"/>
<path fill-rule="evenodd" clip-rule="evenodd" d="M1.96314 5.75916C1.57895 6.31276 1.4375 6.74581 1.4375 7C1.4375 7.25419 1.57895 7.68724 1.96314 8.24084C2.33452 8.77599 2.88654 9.35609 3.58495 9.89211C4.9848 10.9665 6.904 11.8125 9 11.8125C11.096 11.8125 13.0152 10.9665 14.4151 9.89211C15.1135 9.35609 15.6655 8.77599 16.0369 8.24084C16.4211 7.68724 16.5625 7.25419 16.5625 7C16.5625 6.74581 16.4211 6.31276 16.0369 5.75916C15.6655 5.22401 15.1135 4.64391 14.4151 4.10789C13.0152 3.03351 11.096 2.1875 9 2.1875C6.904 2.1875 4.9848 3.03351 3.58495 4.10789C2.88654 4.64391 2.33452 5.22401 1.96314 5.75916ZM2.74779 3.01711C4.33385 1.79982 6.53965 0.8125 9 0.8125C11.4603 0.8125 13.6662 1.79982 15.2522 3.01711C16.0468 3.62693 16.7029 4.30724 17.1665 4.97522C17.6172 5.62474 17.9375 6.33753 17.9375 7C17.9375 7.66247 17.6172 8.37526 17.1665 9.02478C16.7029 9.69276 16.0468 10.3731 15.2522 10.9829C13.6662 12.2002 11.4603 13.1875 9 13.1875C6.53965 13.1875 4.33385 12.2002 2.74779 10.9829C1.95324 10.3731 1.29707 9.69276 0.833511 9.02478C0.382757 8.37526 0.0625 7.66247 0.0625 7C0.0625 6.33753 0.382757 5.62474 0.833511 4.97522C1.29707 4.30724 1.95324 3.62693 2.74779 3.01711Z" fill="#B1B1B1"/>
</svg>
