<svg width="16" height="16" viewBox="0 0 16 16" fill="none" xmlns="http://www.w3.org/2000/svg">
<path d="M5.33227 1.60001C3.27413 1.60001 1.59998 3.27571 1.59998 5.33438V10.6677C1.59998 12.7258 3.27568 14.4 5.33435 14.4H10.6677C12.7258 14.4 14.4 12.7243 14.4 10.6656V5.3323C14.4 3.27416 12.7243 1.60001 10.6656 1.60001H5.33227ZM11.7333 3.73334C12.0277 3.73334 12.2666 3.97227 12.2666 4.26667C12.2666 4.56107 12.0277 4.80001 11.7333 4.80001C11.4389 4.80001 11.2 4.56107 11.2 4.26667C11.2 3.97227 11.4389 3.73334 11.7333 3.73334ZM7.99998 4.80001C9.76478 4.80001 11.2 6.23521 11.2 8.00001C11.2 9.76481 9.76478 11.2 7.99998 11.2C6.23518 11.2 4.79998 9.76481 4.79998 8.00001C4.79998 6.23521 6.23518 4.80001 7.99998 4.80001ZM7.99998 5.86667C7.43418 5.86667 6.89156 6.09143 6.49148 6.49151C6.0914 6.89159 5.86664 7.43421 5.86664 8.00001C5.86664 8.5658 6.0914 9.10842 6.49148 9.5085C6.89156 9.90858 7.43418 10.1333 7.99998 10.1333C8.56577 10.1333 9.10839 9.90858 9.50847 9.5085C9.90855 9.10842 10.1333 8.5658 10.1333 8.00001C10.1333 7.43421 9.90855 6.89159 9.50847 6.49151C9.10839 6.09143 8.56577 5.86667 7.99998 5.86667Z" fill="#B1B1B1"/>
</svg>
