<svg width="129" height="152" viewBox="0 0 129 152" fill="none" xmlns="http://www.w3.org/2000/svg">
<path d="M41.3176 2.1331L29.7096 23.3359C28.878 23.2164 28.0897 23.1908 27.3695 23.1908L31.8445 10.3499C32.5561 8.19118 31.4929 5.82755 29.3239 5.10229C27.1463 4.29172 24.7373 5.43518 24.0086 7.58534L14.3722 35.5032C14.2093 35.8872 13.9865 36.2112 13.7893 36.6122C12.1347 39.7265 11.6636 44.1292 11.5178 47.3545C9.04874 50.5541 -6.34025 86.1854 2.95303 111.851C9.09998 128.881 22.0281 140.024 38.6171 146.603C55.2404 153.173 71.8555 152.883 88.5217 145.724C91.7538 144.316 94.8059 142.78 97.6522 141.023C94.9773 141.389 92.1737 141.594 89.3788 141.594C60.7017 141.594 36.8941 120.596 32.5818 93.1734C32.5818 93.1307 32.5818 93.0965 32.5561 93.0453C32.0932 90.716 31.8103 88.1392 31.9303 85.4003C32.2046 79.4192 34.3392 72.6189 39.5945 65.5115C52.36 62.9006 64.594 55.7077 64.594 55.7077C65.0055 55.6394 65.3741 55.5457 65.7342 55.4007C67.6545 54.5645 68.8719 52.4825 68.5033 50.3408C68.1175 47.7897 65.6741 46.0406 63.1021 46.416L49.2822 49.8802C48.082 48.7113 48.4337 46.7574 52.1973 42.1243L54.6917 38.6771L67.3887 21.2713L67.6545 20.8786C69.0177 19.0186 68.5975 16.4674 66.72 15.1022C64.9368 13.7541 62.2963 14.1551 60.9332 15.981L57.015 21.3905H56.9983L48.7851 32.7387C48.1421 31.9964 47.4305 31.3308 46.6675 30.7421L52.0001 22.0902L60.2299 8.70291C61.4473 6.76607 60.8986 4.22365 58.9354 2.99498C56.9636 1.80046 54.4177 2.39755 53.1832 4.36852L40.2722 25.3325L39.5344 26.5272C39.14 26.3309 38.7973 26.1944 38.4543 26.0408C38.2572 25.9298 38.0601 25.8444 37.8458 25.7676L48.6224 6.17743C49.7112 4.16379 48.9823 1.6468 47.0019 0.520523C46.3589 0.1707 45.6731 1.52588e-05 44.9873 1.52588e-05C43.5299 1.52588e-05 42.1064 0.767929 41.3176 2.1331Z" fill="url(#paint0_linear_1865_387)"/>
<path d="M74.0344 25.5636L70.6991 30.1795L64.6894 38.4558C67.0899 38.6094 69.3961 39.4457 71.3422 40.8194C74.0684 42.8671 75.8687 45.8109 76.3917 49.1129C76.8718 52.159 76.1861 55.1707 74.6429 57.6877C82.2816 60.7935 87.8028 66.263 91.1377 73.9762C94.5499 81.843 94.6871 89.7523 91.5579 97.6277C88.4287 105.503 82.9074 111.143 74.9773 114.513C67.09 117.918 59.2286 118.046 51.2813 114.906C43.3854 111.757 37.7013 106.271 34.2977 98.4041C33.6119 96.8086 33.0288 95.0767 32.583 93.174C36.8953 120.597 60.7029 141.595 89.3801 141.595C92.1749 141.595 94.9786 141.39 97.6534 141.023C109.493 133.788 118.04 123.541 123.407 110.239C129.965 93.6859 129.657 77.1415 122.507 60.5205C115.76 44.9404 104.803 33.823 89.7401 27.0824C88.7971 26.6217 87.8026 26.195 86.791 25.8195C83.0617 24.3264 79.3926 23.2171 75.7062 22.4577C75.329 23.5925 74.7802 24.5824 74.0344 25.5636Z" fill="url(#paint1_linear_1865_387)"/>
<defs>
<linearGradient id="paint0_linear_1865_387" x1="48.8282" y1="-0.00126772" x2="48.8282" y2="151.323" gradientUnits="userSpaceOnUse">
<stop stop-color="#FF1D1D"/>
<stop offset="1" stop-color="#FEC063"/>
</linearGradient>
<linearGradient id="paint1_linear_1865_387" x1="119.298" y1="50.5059" x2="47.041" y2="123.109" gradientUnits="userSpaceOnUse">
<stop stop-color="#FF1D1D"/>
<stop offset="1" stop-color="#FD6A00"/>
</linearGradient>
</defs>
</svg>
