<svg width="20" height="20" viewBox="0 0 20 20" fill="none" xmlns="http://www.w3.org/2000/svg">
<path d="M6.07433 4.08968C8.68653 3.8626 11.3135 3.8626 13.9257 4.08968L15.1842 4.19908C16.022 4.27191 16.7396 4.77163 17.1114 5.48645C17.159 5.57789 17.1233 5.68861 17.0357 5.74287L11.814 8.97531C10.6941 9.66857 9.28204 9.68312 8.14811 9.01307L2.89159 5.90694C2.80666 5.85676 2.76768 5.75345 2.80595 5.66254C3.14608 4.85457 3.91078 4.27775 4.8158 4.19908L6.07433 4.08968Z" fill="#B1B1B1"/>
<path d="M2.80167 7.30573C2.67171 7.22893 2.50587 7.31158 2.49072 7.46178C2.27927 9.55814 2.33045 11.6744 2.64425 13.7611C2.80967 14.8612 3.70751 15.7046 4.8158 15.8009L6.07433 15.9103C8.68653 16.1374 11.3135 16.1374 13.9257 15.9103L15.1842 15.8009C16.2925 15.7046 17.1904 14.8612 17.3558 13.7611C17.6787 11.6135 17.7235 9.43478 17.4902 7.27856C17.4738 7.1273 17.3051 7.04617 17.1758 7.12626L12.472 10.0381C10.9568 10.9761 9.04634 10.9958 7.5122 10.0892L2.80167 7.30573Z" fill="#B1B1B1"/>
</svg>
