<svg width="17" height="16" viewBox="0 0 17 16" fill="none" xmlns="http://www.w3.org/2000/svg">
<path d="M8.19826 9.33337C9.3302 9.33337 10.2478 8.43794 10.2478 7.33337C10.2478 6.2288 9.3302 5.33337 8.19826 5.33337C7.06631 5.33337 6.14868 6.2288 6.14868 7.33337C6.14868 8.43794 7.06631 9.33337 8.19826 9.33337Z" stroke="#5F5F5F" stroke-linecap="round" stroke-linejoin="round"/>
<path d="M12.0631 11.1047L9.16435 13.9334C8.90815 14.1831 8.56081 14.3234 8.19866 14.3234C7.83651 14.3234 7.48918 14.1831 7.23297 13.9334L4.33351 11.1047C3.56917 10.3588 3.04865 9.40852 2.83779 8.37396C2.62692 7.3394 2.73517 6.26706 3.14886 5.29254C3.56254 4.31801 4.26307 3.48508 5.16186 2.89905C6.06066 2.31303 7.11735 2.00024 8.19832 2.00024C9.27929 2.00024 10.336 2.31303 11.2348 2.89905C12.1336 3.48508 12.8341 4.31801 13.2478 5.29254C13.6615 6.26706 13.7697 7.3394 13.5589 8.37396C13.348 9.40852 12.8275 10.3588 12.0631 11.1047V11.1047Z" stroke="#5F5F5F" stroke-linecap="round" stroke-linejoin="round"/>
</svg>
