<svg width="270" height="254" viewBox="0 0 270 254" fill="none" xmlns="http://www.w3.org/2000/svg">
<rect width="270" height="254" rx="27" fill="#D8D8D8"/>
<path d="M148.875 110.333H148.921" stroke="#A9A9A9" stroke-width="5.75" stroke-linecap="round" stroke-linejoin="round"/>
<path d="M157.792 93.6666H113.209C105.822 93.6666 99.834 99.2631 99.834 106.167V147.833C99.834 154.737 105.822 160.333 113.209 160.333H157.792C165.179 160.333 171.167 154.737 171.167 147.833V106.167C171.167 99.2631 165.179 93.6666 157.792 93.6666Z" stroke="#A9A9A9" stroke-width="5.75" stroke-linecap="round" stroke-linejoin="round"/>
<path d="M99.834 139.5L117.667 122.833C119.701 121.005 122.007 120.042 124.355 120.042C126.703 120.042 129.009 121.005 131.042 122.833L153.334 143.667" stroke="#A9A9A9" stroke-width="5.75" stroke-linecap="round" stroke-linejoin="round"/>
<path d="M144.416 135.333L148.874 131.167C150.908 129.338 153.214 128.375 155.562 128.375C157.91 128.375 160.216 129.338 162.249 131.167L171.166 139.5" stroke="#A9A9A9" stroke-width="5.75" stroke-linecap="round" stroke-linejoin="round"/>
</svg>
