<svg width="270" height="255" viewBox="0 0 270 255" fill="none" xmlns="http://www.w3.org/2000/svg">
<rect width="270" height="255" fill="#E7E7E7"/>
<path fill-rule="evenodd" clip-rule="evenodd" d="M116.906 107.75C116.906 97.1876 125.231 88.625 135.5 88.625C145.769 88.625 154.094 97.1876 154.094 107.75C154.094 118.312 145.769 126.875 135.5 126.875C125.231 126.875 116.906 118.312 116.906 107.75ZM135.5 95.375C128.855 95.375 123.469 100.915 123.469 107.75C123.469 114.585 128.855 120.125 135.5 120.125C142.145 120.125 147.531 114.585 147.531 107.75C147.531 100.915 142.145 95.375 135.5 95.375Z" fill="#C4C4C4"/>
<path fill-rule="evenodd" clip-rule="evenodd" d="M118 140.375C112.563 140.375 108.156 144.908 108.156 150.5V155.847C108.156 155.929 108.214 155.998 108.292 156.011C126.311 159.037 144.689 159.037 162.708 156.011C162.786 155.998 162.844 155.929 162.844 155.847V150.5C162.844 144.908 158.437 140.375 153 140.375H151.509C151.393 140.375 151.279 140.394 151.169 140.431L147.383 141.702C139.661 144.296 131.339 144.296 123.617 141.702L119.831 140.431C119.721 140.394 119.607 140.375 119.491 140.375H118ZM101.594 150.5C101.594 141.18 108.939 133.625 118 133.625H119.491C120.298 133.625 121.101 133.756 121.868 134.014L125.654 135.286C132.052 137.434 138.948 137.434 145.346 135.286L149.132 134.014C149.899 133.756 150.702 133.625 151.509 133.625H153C162.061 133.625 169.406 141.18 169.406 150.5V155.847C169.406 159.237 167.018 162.127 163.766 162.673C145.046 165.817 125.954 165.817 107.234 162.673C103.982 162.127 101.594 159.237 101.594 155.847V150.5Z" fill="#C4C4C4"/>
</svg>
