<svg width="406" height="430" viewBox="0 0 406 430" fill="none" xmlns="http://www.w3.org/2000/svg">
<path d="M405.5 59.5C405.5 67.4675 399.988 75.1631 389.762 82.2491C379.552 89.3247 364.745 95.7168 346.402 101.093C309.724 111.844 259.023 118.5 203 118.5C146.977 118.5 96.2765 111.844 59.598 101.093C41.2554 95.7168 26.448 89.3247 16.2375 82.2491C6.01205 75.1631 0.5 67.4675 0.5 59.5C0.5 51.5325 6.01205 43.8369 16.2375 36.7509C26.448 29.6753 41.2554 23.2832 59.598 17.907C96.2765 7.15636 146.977 0.5 203 0.5C259.023 0.5 309.724 7.15636 346.402 17.907C364.745 23.2832 379.552 29.6753 389.762 36.7509C399.988 43.8369 405.5 51.5325 405.5 59.5Z" stroke="#B1B1B1"/>
<path d="M405.5 240C405.5 248.038 399.986 255.8 389.761 262.945C379.55 270.08 364.743 276.526 346.401 281.947C309.723 292.788 259.023 299.5 203 299.5C146.977 299.5 96.2772 292.788 59.599 281.947C41.2567 276.526 26.4495 270.08 16.2391 262.945C6.0145 255.8 0.5 248.038 0.5 240C0.5 231.962 6.0145 224.2 16.2391 217.055C26.4495 209.92 41.2567 203.474 59.599 198.053C96.2772 187.212 146.977 180.5 203 180.5C259.023 180.5 309.723 187.212 346.401 198.053C364.743 203.474 379.55 209.92 389.761 217.055C399.986 224.2 405.5 231.962 405.5 240Z" stroke="#B1B1B1"/>
<path d="M405.5 95C405.5 103.038 399.986 110.8 389.761 117.945C379.55 125.08 364.743 131.526 346.401 136.947C309.723 147.788 259.023 154.5 203 154.5C146.977 154.5 96.2772 147.788 59.599 136.947C41.2567 131.526 26.4495 125.08 16.2391 117.945C6.0145 110.8 0.5 103.038 0.5 95C0.5 86.9616 6.0145 79.2001 16.2391 72.0551C26.4495 64.9202 41.2567 58.4745 59.599 53.0531C96.2772 42.2123 146.977 35.5 203 35.5C259.023 35.5 309.723 42.2123 346.401 53.0531C364.743 58.4745 379.55 64.9202 389.761 72.0551C399.986 79.2001 405.5 86.9616 405.5 95Z" stroke="#B1B1B1"/>
<path d="M405.5 285.5C405.5 293.325 399.993 300.89 389.766 307.858C379.555 314.814 364.747 321.099 346.404 326.385C309.725 336.955 259.024 343.5 203 343.5C146.976 343.5 96.2751 336.955 59.5958 326.385C41.2528 321.099 26.4449 314.814 16.2343 307.858C6.00701 300.89 0.5 293.325 0.5 285.5C0.5 277.675 6.00701 270.11 16.2343 263.142C26.4449 256.186 41.2528 249.901 59.5958 244.615C96.2751 234.045 146.976 227.5 203 227.5C259.024 227.5 309.725 234.045 346.404 244.615C364.747 249.901 379.555 256.186 389.766 263.142C399.993 270.11 405.5 277.675 405.5 285.5Z" stroke="#B1B1B1"/>
<path d="M405.5 140C405.5 148.038 399.986 155.8 389.761 162.945C379.55 170.08 364.743 176.526 346.401 181.947C309.723 192.788 259.023 199.5 203 199.5C146.977 199.5 96.2772 192.788 59.599 181.947C41.2567 176.526 26.4495 170.08 16.2391 162.945C6.0145 155.8 0.5 148.038 0.5 140C0.5 131.962 6.0145 124.2 16.2391 117.055C26.4495 109.92 41.2567 103.474 59.599 98.0531C96.2772 87.2123 146.977 80.5 203 80.5C259.023 80.5 309.723 87.2123 346.401 98.0531C364.743 103.474 379.55 109.92 389.761 117.055C399.986 124.2 405.5 131.962 405.5 140Z" stroke="#B1B1B1"/>
<path d="M405.5 331.5C405.5 339.467 399.988 347.163 389.762 354.249C379.552 361.325 364.745 367.717 346.402 373.093C309.724 383.844 259.023 390.5 203 390.5C146.977 390.5 96.2765 383.844 59.598 373.093C41.2554 367.717 26.448 361.325 16.2375 354.249C6.01205 347.163 0.5 339.467 0.5 331.5C0.5 323.533 6.01205 315.837 16.2375 308.751C26.448 301.675 41.2554 295.283 59.598 289.907C96.2765 279.156 146.977 272.5 203 272.5C259.023 272.5 309.724 279.156 346.402 289.907C364.745 295.283 379.552 301.675 389.762 308.751C399.988 315.837 405.5 323.533 405.5 331.5Z" stroke="#B1B1B1"/>
<path d="M405.5 190C405.5 198.038 399.986 205.8 389.761 212.945C379.55 220.08 364.743 226.526 346.401 231.947C309.723 242.788 259.023 249.5 203 249.5C146.977 249.5 96.2772 242.788 59.599 231.947C41.2567 226.526 26.4495 220.08 16.2391 212.945C6.0145 205.8 0.5 198.038 0.5 190C0.5 181.962 6.0145 174.2 16.2391 167.055C26.4495 159.92 41.2567 153.474 59.599 148.053C96.2772 137.212 146.977 130.5 203 130.5C259.023 130.5 309.723 137.212 346.401 148.053C364.743 153.474 379.55 159.92 389.761 167.055C399.986 174.2 405.5 181.962 405.5 190Z" stroke="#B1B1B1"/>
<path d="M405.5 370.5C405.5 378.467 399.988 386.163 389.762 393.249C379.552 400.325 364.745 406.717 346.402 412.093C309.724 422.844 259.023 429.5 203 429.5C146.977 429.5 96.2765 422.844 59.598 412.093C41.2554 406.717 26.448 400.325 16.2375 393.249C6.01205 386.163 0.5 378.467 0.5 370.5C0.5 362.533 6.01205 354.837 16.2375 347.751C26.448 340.675 41.2554 334.283 59.598 328.907C96.2765 318.156 146.977 311.5 203 311.5C259.023 311.5 309.724 318.156 346.402 328.907C364.745 334.283 379.552 340.675 389.762 347.751C399.988 354.837 405.5 362.533 405.5 370.5Z" stroke="#B1B1B1"/>
</svg>
