<svg width="39" height="38" viewBox="0 0 39 38" fill="none" xmlns="http://www.w3.org/2000/svg">
<g id="VK Logo 1" clip-path="url(#clip0_2209_302)">
<g id="Clip path group">
<mask id="mask0_2209_302" style="mask-type:luminance" maskUnits="userSpaceOnUse" x="0" y="0" width="39" height="38">
<g id="clip0_2_40">
<path id="Vector" d="M38.8072 0H0.193359V38H38.8072V0Z" fill="white"/>
</g>
</mask>
<g mask="url(#mask0_2209_302)">
<g id="Group">
<path id="Vector_2" d="M0.193359 18.24C0.193359 9.64159 0.193359 5.34238 2.9077 2.67119C5.62204 0 9.9907 0 18.728 0H20.2726C29.0099 0 33.3785 0 36.0929 2.67119C38.8072 5.34238 38.8072 9.64159 38.8072 18.24V19.76C38.8072 28.3584 38.8072 32.6576 36.0929 35.3288C33.3785 38 29.0099 38 20.2726 38H18.728C9.9907 38 5.62204 38 2.9077 35.3288C0.193359 32.6576 0.193359 28.3584 0.193359 19.76V18.24Z" fill="#353535"/>
<path id="Vector_3" d="M20.7387 27.376C11.9379 27.376 6.91816 21.4385 6.70898 11.5585H11.1174C11.2622 18.8101 14.5122 21.8818 17.0864 22.5151V11.5585H21.2375V17.8126C23.7796 17.5434 26.4501 14.6935 27.3511 11.5585H31.5022C30.8103 15.4218 27.9143 18.2718 25.8549 19.4434C27.9143 20.3934 31.2127 22.8793 32.4677 27.376H27.8982C26.9168 24.3676 24.4714 22.0401 21.2375 21.7234V27.376H20.7387Z" fill="white"/>
</g>
</g>
</g>
</g>
<defs>
<clipPath id="clip0_2209_302">
<rect width="39" height="38" fill="white"/>
</clipPath>
</defs>
</svg>
