<svg width="20" height="20" viewBox="0 0 20 20" fill="none" xmlns="http://www.w3.org/2000/svg">
<path d="M19.0679 14.6675C18.3192 13.32 16.3904 11.7008 15.5942 10.9963C15.3763 10.8033 15.3529 10.4696 15.5513 10.2563C17.0708 8.62334 18.2863 6.74709 18.7046 5.61334C18.8892 5.11251 18.5071 4.58334 17.9688 4.58334H16.405C15.8896 4.58334 15.5879 4.76834 15.4442 5.06292C14.1813 7.65084 13.0979 8.77084 12.3396 9.42542C11.915 9.79209 11.2529 9.48834 11.2529 8.93042C11.2529 7.85542 11.2529 6.46584 11.2529 5.48042C11.2529 5.00251 10.8621 4.61584 10.38 4.61584L7.52335 4.58334C7.16376 4.58334 6.95835 4.99042 7.17418 5.27584L7.64585 5.95292C7.82335 6.18751 7.91918 6.47292 7.91918 6.76584L7.91668 9.81501C7.91668 10.3454 7.27376 10.6046 6.8921 10.2329C5.60085 8.97542 4.48043 6.40751 4.0771 5.17959C3.96043 4.82417 3.62751 4.58417 3.25001 4.58334L1.7096 4.57959C1.13168 4.57959 0.709181 5.12751 0.866264 5.67917C2.27376 10.6196 5.16168 15.3196 10.3083 15.8292C10.8154 15.8792 11.2529 15.4708 11.2529 14.9654V13.3629C11.2529 12.9033 11.6133 12.5083 12.0767 12.4967C12.0929 12.4963 12.1092 12.4963 12.1254 12.4963C13.4867 12.4963 15.0113 14.4775 15.5446 15.4042C15.6979 15.6708 15.9846 15.8333 16.2946 15.8333H18.3667C18.9713 15.8333 19.3592 15.1921 19.0679 14.6675Z" fill="#B1B1B1"/>
</svg>
