<svg width="19" height="12" viewBox="0 0 19 12" fill="none" xmlns="http://www.w3.org/2000/svg">
<path d="M18.6085 1.87771C18.3896 1.14347 17.7478 0.564674 16.9339 0.366965C15.4471 0 9.49978 0 9.49978 0C9.49978 0 3.55265 0 2.06583 0.353052C1.26763 0.550552 0.610218 1.14357 0.391273 1.87771C0 3.21878 0 6 0 6C0 6 0 8.79523 0.391273 10.1223C0.610451 10.8564 1.25198 11.4352 2.06596 11.6329C3.5683 12 9.50001 12 9.50001 12C9.50001 12 15.4471 12 16.9339 11.6469C17.7479 11.4493 18.3896 10.8705 18.6087 10.1364C18.9999 8.79523 18.9999 6.01412 18.9999 6.01412C18.9999 6.01412 19.0156 3.21878 18.6085 1.87771ZM7.60628 8.56938V3.43062L12.5518 6L7.60628 8.56938Z" fill="#B1B1B1"/>
</svg>
